<?xml version="1.0" encoding="UTF-8"?>
<svg width="224px" height="35px" viewBox="0 0 224 35" version="1.1" xmlns="http://www.w3.org/2000/svg" xmlns:xlink="http://www.w3.org/1999/xlink">
    <title>coin_ranking</title>
    <g id="coin_ranking" stroke="none" stroke-width="1" fill="none" fill-rule="evenodd">
        <g id="coinranking" transform="translate(-0.000000, 0.000000)" fill-rule="nonzero">
            <g id="Group" transform="translate(47.003205, 4.711538)" fill="#002358">
                <path d="M5.26121795,20.8519231 C3.68467636,20.0109552 2.37071181,18.7513348 1.46394231,17.2116987 C0.546314103,15.6613782 0.0878739316,13.9132479 0.0886208814,11.9673077 C0.0893696581,10.0213675 0.552297009,8.27286325 1.47740385,6.72179487 C2.3930836,5.183323 3.71201306,3.9245212 5.29150641,3.08157051 C6.90838675,2.20058761 8.71784188,1.76084402 10.7198718,1.76233974 C12.2453785,1.7432774 13.7590228,2.03249907 15.1700321,2.61266026 C16.4810593,3.15823756 17.6459704,4.00348967 18.5713141,5.08060897 L16.1908654,7.32419872 C14.7527244,5.77013889 12.9851496,4.99310897 10.888141,4.99310897 C9.52628205,4.99310897 8.30726496,5.29225427 7.23108974,5.89054487 C6.17733535,6.4654363 5.30479814,7.32282259 4.71153846,8.36634615 C4.10651709,9.42532051 3.80438034,10.625641 3.80512821,11.9673077 C3.80587607,13.3089744 4.10801282,14.5089209 4.71153846,15.5671474 C5.30476429,16.6130011 6.17864524,17.4721166 7.23445513,18.0474359 C8.31137821,18.6457265 9.5303953,18.9448718 10.8915064,18.9448718 C12.9855235,18.9448718 14.7523504,18.1596154 16.1919872,16.5891026 L18.5724359,18.8551282 C17.6435754,19.9347787 16.4733121,20.7802891 15.1565705,21.3230769 C13.7405895,21.902358 12.2227333,22.1915098 10.6929487,22.1733974 C8.68717949,22.1719017 6.87660256,21.7314103 5.26121795,20.8519231 Z" id="Path"></path>
                <path d="M24.0120192,21.0897436 C22.8132397,20.4576781 21.8162055,19.5014582 21.1346154,18.3301282 C20.4443376,17.1492521 20.0991987,15.8124466 20.0991987,14.3197115 C20.0991987,12.8269765 20.4443376,11.4939103 21.1346154,10.3205128 C21.8187329,9.15373155 22.8153625,8.20139663 24.0120192,7.57099359 C25.2407585,6.91063034 26.6201923,6.58007479 28.1503205,6.57932692 C29.6991453,6.57932692 31.0879274,6.90988248 32.3166667,7.57099359 C33.5130775,8.20173836 34.5096228,9.15399277 35.1940705,10.3205128 C35.8828526,11.4916667 36.2276175,12.823985 36.2283666,14.3174679 C36.2291132,15.8109509 35.8843483,17.1477564 35.1940705,18.3278846 C34.5125237,19.4998165 33.5155322,20.4567729 32.3166667,21.0897436 C31.0879274,21.7508547 29.6991453,22.0817842 28.1503205,22.0825522 C26.6186966,22.0855235 25.2392628,21.754594 24.0120192,21.0897436 M31.3810897,17.7434295 C32.2321581,16.8759081 32.6573184,15.7331731 32.6565715,14.3152244 C32.6558226,12.8972756 32.2306624,11.7537927 31.3810897,10.8847756 C30.5307692,10.0157585 29.4538462,9.58125 28.1503205,9.58125 C26.8467949,9.58125 25.774359,10.0157585 24.9330128,10.8847756 C24.0909188,11.7575321 23.6698718,12.9025107 23.6698718,14.3197115 C23.6698718,15.7369124 24.0905449,16.8796474 24.931891,17.7479167 C25.7724893,18.6191774 26.8449252,19.0540598 28.1491987,19.0525679 C29.4534722,19.0510684 30.5307692,18.6161859 31.3810897,17.7479167" id="Shape"></path>
                <path d="M39.9358974,3.64807692 C39.5108545,3.25999018 39.2747695,2.70680657 39.2886218,2.13141026 C39.2750359,1.55573989 39.5110484,1.00231732 39.9358974,0.613621795 C40.3737812,0.206939854 40.9539191,-0.0114176024 41.5512821,0.00560897436 C42.1439867,-0.0127864874 42.7214975,0.194957006 43.1666667,0.586698718 C43.5908187,0.951170733 43.8302119,1.48589778 43.8195513,2.04503205 C43.833082,2.63427299 43.6020113,3.2028126 43.18125,3.61554487 C42.7519907,4.04641538 42.1637119,4.2806713 41.5557692,4.26282051 C40.9558434,4.27970879 40.3735689,4.05873483 39.9358974,3.64807692 L39.9358974,3.64807692 Z M39.7653846,6.75208333 L43.3091346,6.75208333 L43.3091346,21.8873397 L39.7698718,21.8873397 L39.7653846,6.75208333 Z" id="Shape"></path>
                <path d="M61.2847756,8.25416667 C62.4372329,9.36848291 63.0134615,11.0220085 63.0134615,13.2147436 L63.0134615,21.8873397 L59.4708333,21.8873397 L59.4708333,13.6679487 C59.4708333,12.3457265 59.1589744,11.3488248 58.5352564,10.6772436 C57.9115385,10.0056624 57.0230769,9.66912393 55.8698718,9.66762821 C54.5663462,9.66762821 53.5365385,10.0595085 52.7804487,10.8432692 C52.024359,11.6270299 51.646688,12.7563034 51.6474359,14.2310897 L51.6474359,21.8839744 L48.1036859,21.8839744 L48.1036859,6.75208333 L51.4769231,6.75208333 L51.4769231,8.70737179 C52.0706808,8.00257914 52.8305466,7.45667859 53.6879808,7.11891026 C54.6454332,6.74804549 55.6655022,6.56559102 56.6921474,6.58157051 C58.6014423,6.58157051 60.1323184,7.13910256 61.2847756,8.25416667 Z" id="Path"></path>
                <path d="M76.4200321,6.58157051 L76.4200321,9.9536859 C76.1490859,9.90043601 75.8738639,9.87190004 75.5977564,9.86842949 C74.2179487,9.86842949 73.1410256,10.2700321 72.3669872,11.0732372 C71.5929487,11.8764423 71.2051816,13.0356303 71.2036859,14.5508013 L71.2036859,21.8918269 L67.6610577,21.8918269 L67.6610577,6.75208333 L71.0342949,6.75208333 L71.0342949,8.96201923 C72.0551282,7.37580128 73.8503739,6.58231838 76.4200321,6.58157051 Z" id="Path"></path>
                <path d="M90.3796474,8.18237179 C91.5612714,9.25032051 92.1520833,10.8612179 92.1520833,13.0150641 L92.1520833,21.8873397 L88.806891,21.8873397 L88.806891,20.0453526 C88.3520211,20.7234682 87.7057773,21.2510062 86.9503205,21.5608974 C86.1471154,21.9108974 85.1786325,22.0862714 84.0448718,22.0870192 C82.9107372,22.0870192 81.9134615,21.8907051 81.06875,21.5059295 C80.2731754,21.1630622 79.5904207,20.6027834 79.0988782,19.8894231 C78.6354992,19.1982712 78.3933164,18.3825181 78.4044872,17.5504808 C78.4044872,16.1908654 78.9096688,15.0997329 79.9200321,14.2770833 C80.9303953,13.4544338 82.5229701,13.043109 84.6977564,13.043109 L88.6083333,13.043109 L88.6083333,12.81875 C88.6083333,11.7597756 88.2919872,10.9472222 87.6592949,10.3810897 C87.0266026,9.81495726 86.0861645,9.53114316 84.8379808,9.52964744 C83.9862876,9.53054078 83.1399657,9.66452913 82.3296474,9.92676282 C81.5707182,10.1583809 80.8634628,10.533908 80.2464744,11.0328526 L78.8576923,8.45272436 C79.7176098,7.81707599 80.688457,7.34724984 81.7205128,7.06730769 C82.873252,6.74091207 84.0662225,6.57852608 85.2642628,6.5849359 C87.4936432,6.58269231 89.1987714,7.11517094 90.3796474,8.18237179 Z M87.1488782,18.8977564 C87.8249814,18.506379 88.3413831,17.8890803 88.6072115,17.1544872 L88.6072115,15.3977564 L84.9512821,15.3977564 C82.9096154,15.3977564 81.8891056,16.0682158 81.8899038,17.4091346 C81.8719059,18.0155749 82.1592219,18.5906282 82.6549679,18.9403846 C83.1657585,19.3188034 83.8762286,19.5057692 84.7863782,19.5012821 C85.6139642,19.5174389 86.4304408,19.3088613 87.1488782,18.8977564 L87.1488782,18.8977564 Z" id="Shape"></path>
                <path d="M110.007692,8.25416667 C111.160897,9.36848291 111.7375,11.0220085 111.7375,13.2147436 L111.7375,21.8873397 L108.19375,21.8873397 L108.19375,13.6679487 C108.19375,12.3457265 107.881891,11.3488248 107.258173,10.6772436 C106.634455,10.0056624 105.746368,9.66912393 104.59391,9.66762821 C103.290385,9.66762821 102.260577,10.0595085 101.504487,10.8432692 C100.748397,11.6270299 100.370353,12.7563034 100.370353,14.2310897 L100.370353,21.8839744 L96.8277244,21.8839744 L96.8277244,6.75208333 L100.200962,6.75208333 L100.200962,8.70737179 C100.794719,8.00257914 101.554585,7.45667859 102.412019,7.11891026 C103.369472,6.74804549 104.389541,6.56559102 105.416186,6.58157051 C107.325481,6.58157051 108.855983,7.13910256 110.007692,8.25416667 Z" id="Path"></path>
                <polygon id="Path" points="122.565064 15.3977564 119.928846 17.8903846 119.928846 21.8873397 116.386218 21.8873397 116.386218 0.855929487 119.928846 0.855929487 119.928846 13.5535256 127.270994 6.75208333 131.522596 6.75208333 125.201282 13.1003205 132.117147 21.8873397 127.808333 21.8873397"></polygon>
                <path d="M134.582853,3.64807692 C134.15652,3.26054279 133.918826,2.70742403 133.93109,2.13141026 C133.919092,1.55512343 134.156713,1.00176525 134.582853,0.613621795 C135.020865,0.207148359 135.600915,-0.0111757705 136.198237,0.00560897436 C136.79096,-0.0128997122 137.368511,0.194858302 137.813622,0.586698718 C138.238163,0.950880597 138.477642,1.48580107 138.466506,2.04503205 C138.480331,2.6341062 138.249676,3.20262138 137.829327,3.61554487 C137.398493,4.04751593 136.808037,4.28183034 136.198237,4.26282051 C135.599892,4.27827304 135.019541,4.05741708 134.582853,3.64807692 Z M134.413462,6.75208333 L137.95609,6.75208333 L137.95609,21.8873397 L134.413462,21.8873397 L134.413462,6.75208333 Z" id="Shape"></path>
                <path d="M155.929487,8.25416667 C157.081197,9.36848291 157.657425,11.0220085 157.658173,13.2147436 L157.658173,21.8873397 L154.112179,21.8873397 L154.112179,13.6679487 C154.112179,12.3457265 153.800321,11.3488248 153.176603,10.6772436 C152.552885,10.0056624 151.664797,9.66912393 150.51234,9.66762821 C149.207318,9.66762821 148.177511,10.0595085 147.422917,10.8432692 C146.668323,11.6270299 146.290278,12.7563034 146.288782,14.2310897 L146.288782,21.8839744 L142.746154,21.8839744 L142.746154,6.75208333 L146.119391,6.75208333 L146.119391,8.70737179 C146.712479,8.00234627 147.472048,7.45638159 148.329327,7.11891026 C149.28684,6.7482632 150.306867,6.56581639 151.333494,6.58157051 C153.242788,6.58157051 154.774786,7.13910256 155.929487,8.25416667 Z" id="Path"></path>
                <path d="M177.467949,6.75208333 L177.467949,19.5921474 C177.467949,24.9206731 174.746848,27.584562 169.304647,27.5838141 C167.906328,27.592092 166.51362,27.4063473 165.166346,27.031891 C163.862073,26.6624466 162.784776,26.1284722 161.934455,25.4299679 L163.521795,22.7657051 C164.183654,23.3146368 165.019765,23.7540064 166.030128,24.0838141 C167.022304,24.4110699 168.060215,24.5784384 169.104968,24.5796474 C170.767468,24.5796474 171.986485,24.2019765 172.762019,23.4466346 C173.537553,22.6912927 173.925321,21.5384615 173.925321,19.988141 L173.925321,19.1950321 C173.31359,19.8600912 172.555983,20.3742501 171.712019,20.6971154 C170.798508,21.0448703 169.827721,21.2176407 168.850321,21.2064103 C167.495148,21.226043 166.156222,20.9096186 164.953205,20.2854167 C163.813484,19.693713 162.861324,18.7959399 162.203686,17.6929487 C161.530609,16.5778846 161.194071,15.3020299 161.194071,13.8653846 C161.194071,12.4287393 161.530609,11.1573718 162.203686,10.0512821 C162.863127,8.9565234 163.81547,8.0679037 164.953205,7.48573718 C166.159302,6.87144604 167.496931,6.56033361 168.850321,6.57932692 C169.872367,6.56608143 170.887512,6.7484725 171.841026,7.11666667 C172.720355,7.46342088 173.496231,8.02959035 174.094712,8.76121795 L174.094712,6.75208333 L177.467949,6.75208333 Z M172.690224,16.9974359 C173.550267,16.1942308 173.980288,15.1502137 173.980288,13.8653846 C173.980288,12.6 173.550267,11.5705662 172.690224,10.7770833 C171.830182,9.98360043 170.730449,9.58648504 169.391026,9.58573718 C168.03141,9.58573718 166.921581,9.98285256 166.061538,10.7770833 C165.201496,11.5713141 164.771474,12.6007479 164.771474,13.8653846 C164.771474,15.1524573 165.201496,16.1964744 166.061538,16.9974359 C166.921581,17.7983974 168.03141,18.2 169.391026,18.2022436 C170.731197,18.2022436 171.830929,17.800641 172.690224,16.9974359 L172.690224,16.9974359 Z" id="Shape"></path>
            </g>
            <g id="Group" fill="#16D570">
                <path d="M26.9084936,34.8878337 C24.7626379,34.8883963 22.7045302,34.0360976 21.1873397,32.5185897 L2.48141026,13.8070513 C0.168300835,11.4937242 -0.523509595,8.01478875 0.728575245,4.99249806 C1.98066008,1.97020738 4.93005768,-1.9476713e-06 8.20144231,-1.9476713e-06 L26.90625,-1.9476713e-06 C29.05233,-0.00148826667 31.1110216,0.849995659 32.6290556,2.36697767 C34.1470896,3.88395969 35.0000176,5.94206048 35.0000176,8.08814103 L35.0000176,26.7940705 C35.0044776,28.9416471 34.1534919,31.0025862 32.6351332,32.521366 C31.1167745,34.0401457 29.0560713,34.8917028 26.9084936,34.8878337 Z" id="Path" opacity="0.35"></path>
                <path d="M8.20144231,34.8878218 C4.92981428,34.8891525 1.97968084,32.9191413 0.727206297,29.8967483 C-0.525268243,26.8743553 0.166685599,23.3950693 2.48028846,21.081891 L21.1862179,2.36923077 C24.345924,-0.790475251 29.4688196,-0.790475251 32.6285256,2.36923077 C35.7882317,5.52893679 35.7882317,10.6518324 32.6285256,13.8115385 L13.9203526,32.5129808 C12.4061765,34.0343028 10.3478692,34.8890373 8.20144231,34.8878218 Z" id="Path"></path>
            </g>
        </g>
    </g>
</svg>