<svg xmlns="http://www.w3.org/2000/svg" width="25" height="25" viewBox="0 0 25 25">
    <g fill="none" fill-rule="evenodd">
        <g>
            <g>
                <g>
                    <g>
                        <g>
                            <path d="M0 0H25V25H0z" transform="translate(-1106 -3233) translate(0 3193) translate(790 40) translate(106) translate(210)"/>
                            <path fill="#000" fill-rule="nonzero" d="M12.501 2.24C6.975 2.237 2.5 6.832 2.5 12.504c0 4.484 2.8 8.297 6.699 9.697.525.135.444-.248.444-.51v-1.779c-3.032.365-3.155-1.696-3.358-2.04-.411-.72-1.383-.904-1.093-1.249.69-.365 1.395.092 2.21 1.33.59.897 1.74.745 2.324.596.127-.54.4-1.021.775-1.395-3.141-.579-4.45-2.548-4.45-4.89 0-1.135.364-2.18 1.079-3.022-.456-1.388.042-2.577.11-2.754 1.297-.12 2.647.955 2.752 1.04.737-.205 1.58-.313 2.523-.313.947 0 1.792.113 2.536.32.252-.198 1.503-1.12 2.71-1.008.065.177.552 1.338.123 2.708.724.845 1.092 1.898 1.092 3.037 0 2.345-1.318 4.317-4.468 4.886.545.55.851 1.303.85 2.089v2.582c.019.206 0 .41.336.41 3.957-1.37 6.806-5.21 6.806-9.733 0-5.674-4.478-10.266-9.999-10.266z" transform="translate(-1106 -3233) translate(0 3193) translate(790 40) translate(106) translate(210)"/>
                        </g>
                    </g>
                </g>
            </g>
        </g>
    </g>
</svg>
