<svg xmlns="http://www.w3.org/2000/svg" width="25" height="25" viewBox="0 0 25 25">
    <g fill="none" fill-rule="evenodd">
        <g>
            <g>
                <g>
                    <g>
                        <path d="M0 0H25V25H0z" transform="translate(-896 -3233) translate(0 3193) translate(790 40) translate(106)"/>
                        <path fill="#000" fill-rule="nonzero" d="M20.444 8.32c.013.183.013.365.013.547 0 5.56-4.124 11.966-11.663 11.966-2.322 0-4.48-.69-6.294-1.888.33.04.647.052.99.052 1.916 0 3.68-.664 5.089-1.796-1.802-.04-3.313-1.25-3.833-2.917.254.039.508.065.774.065.368 0 .736-.052 1.079-.143-1.878-.39-3.287-2.084-3.287-4.128v-.052c.546.313 1.18.508 1.853.534-1.104-.755-1.827-2.044-1.827-3.503 0-.781.203-1.497.558-2.122 2.018 2.552 5.05 4.219 8.452 4.4-.064-.312-.102-.637-.102-.963 0-2.317 1.828-4.205 4.1-4.205 1.18 0 2.245.507 2.994 1.328.926-.182 1.815-.534 2.602-1.016-.305.977-.952 1.797-1.802 2.318.824-.091 1.624-.326 2.36-.651-.558.833-1.256 1.575-2.056 2.174z" transform="translate(-896 -3233) translate(0 3193) translate(790 40) translate(106)"/>
                    </g>
                </g>
            </g>
        </g>
    </g>
</svg>
